<svg xmlns="http://www.w3.org/2000/svg" xmlns:xlink="http://www.w3.org/1999/xlink" width="600" zoomAndPan="magnify" viewBox="0 0 450 187.499995" height="250" preserveAspectRatio="xMidYMid meet" version="1.0"><defs><g/><clipPath id="f8f3f89c6a"><path d="M 0.597656 46 L 117 46 L 117 145 L 0.597656 145 Z M 0.597656 46 " clip-rule="nonzero"/></clipPath><clipPath id="499ac8e137"><path d="M 49 47 L 165.902344 47 L 165.902344 145 L 49 145 Z M 49 47 " clip-rule="nonzero"/></clipPath><clipPath id="fb0254ac88"><path d="M 40 12.472656 L 129 12.472656 L 129 71 L 40 71 Z M 40 12.472656 " clip-rule="nonzero"/></clipPath><clipPath id="9afac83151"><path d="M 30 138 L 137 138 L 137 186.757812 L 30 186.757812 Z M 30 138 " clip-rule="nonzero"/></clipPath></defs><g fill="#241800" fill-opacity="1"><g transform="translate(136.438973, 165.089643)"><g><path d="M 17.828125 -4.78125 L 19.015625 -0.78125 C 18.597656 -0.445312 18.039062 -0.179688 17.34375 0.015625 C 16.65625 0.210938 15.957031 0.3125 15.25 0.3125 C 13.882812 0.3125 12.75 0.0625 11.84375 -0.4375 C 10.945312 -0.9375 10.222656 -1.648438 9.671875 -2.578125 L 7.953125 -5.453125 C 7.742188 -5.796875 7.539062 -6.054688 7.34375 -6.234375 C 7.15625 -6.410156 6.925781 -6.523438 6.65625 -6.578125 L 6.65625 0 L 1.5625 0 L 1.5625 -18.453125 L 7.796875 -18.453125 C 10.640625 -18.453125 12.738281 -17.914062 14.09375 -16.84375 C 15.457031 -15.769531 16.140625 -14.28125 16.140625 -12.375 C 16.140625 -11.019531 15.75 -9.894531 14.96875 -9 C 14.1875 -8.113281 13.15625 -7.488281 11.875 -7.125 C 12.53125 -6.914062 13.050781 -6.523438 13.4375 -5.953125 L 13.90625 -5.25 C 14.332031 -4.570312 15 -4.234375 15.90625 -4.234375 C 16.226562 -4.234375 16.550781 -4.269531 16.875 -4.34375 C 17.195312 -4.425781 17.515625 -4.570312 17.828125 -4.78125 Z M 7.75 -14.265625 L 6.65625 -14.265625 L 6.65625 -10.609375 L 7.984375 -10.609375 C 9.109375 -10.609375 9.890625 -10.757812 10.328125 -11.0625 C 10.765625 -11.363281 10.984375 -11.832031 10.984375 -12.46875 C 10.984375 -13.164062 10.6875 -13.640625 10.09375 -13.890625 C 9.5 -14.140625 8.71875 -14.265625 7.75 -14.265625 Z M 7.75 -14.265625 "/></g></g></g><g fill="#241800" fill-opacity="1"><g transform="translate(169.854302, 165.089643)"><g><path d="M 15.015625 -14 L 6.671875 -14 L 6.671875 -11.484375 L 14.34375 -11.484375 L 14.34375 -7.046875 L 6.671875 -7.046875 L 6.671875 -4.4375 L 15.234375 -4.4375 L 14.921875 0 L 1.5625 0 L 1.5625 -18.453125 L 15.015625 -18.453125 Z M 15.015625 -14 "/></g></g></g><g fill="#241800" fill-opacity="1"><g transform="translate(200.905304, 165.089643)"><g><path d="M 18.5 -3.65625 C 17.707031 -2.394531 16.613281 -1.421875 15.21875 -0.734375 C 13.832031 -0.0546875 12.296875 0.28125 10.609375 0.28125 C 8.523438 0.28125 6.742188 -0.078125 5.265625 -0.796875 C 3.785156 -1.523438 2.65625 -2.570312 1.875 -3.9375 C 1.09375 -5.3125 0.703125 -6.941406 0.703125 -8.828125 C 0.703125 -10.828125 1.128906 -12.5625 1.984375 -14.03125 C 2.847656 -15.5 4.050781 -16.644531 5.59375 -17.46875 C 7.132812 -18.289062 8.925781 -18.703125 10.96875 -18.703125 C 12.769531 -18.703125 14.285156 -18.382812 15.515625 -17.75 C 16.742188 -17.125 17.75 -16.15625 18.53125 -14.84375 L 14.609375 -12.0625 C 14.273438 -12.695312 13.757812 -13.203125 13.0625 -13.578125 C 12.375 -13.953125 11.613281 -14.140625 10.78125 -14.140625 C 9.257812 -14.148438 8.078125 -13.675781 7.234375 -12.71875 C 6.390625 -11.757812 5.96875 -10.507812 5.96875 -8.96875 C 5.96875 -7.488281 6.351562 -6.335938 7.125 -5.515625 C 7.894531 -4.691406 9.0625 -4.28125 10.625 -4.28125 C 12.425781 -4.28125 13.78125 -5.0625 14.6875 -6.625 Z M 18.5 -3.65625 "/></g></g></g><g fill="#241800" fill-opacity="1"><g transform="translate(234.502491, 165.089643)"><g><path d="M 1.5625 0 L 1.5625 -18.453125 L 6.75 -18.453125 L 6.75 0 Z M 1.5625 0 "/></g></g></g><g fill="#241800" fill-opacity="1"><g transform="translate(258.408551, 165.089643)"><g><path d="M 6.65625 0 L 1.5625 0 L 1.5625 -18.453125 L 8.546875 -18.453125 C 11.410156 -18.453125 13.519531 -17.9375 14.875 -16.90625 C 16.238281 -15.875 16.921875 -14.367188 16.921875 -12.390625 C 16.921875 -11.078125 16.5625 -9.941406 15.84375 -8.984375 C 15.132812 -8.035156 14.128906 -7.304688 12.828125 -6.796875 C 11.535156 -6.285156 9.988281 -6.03125 8.1875 -6.03125 L 6.65625 -6.03125 Z M 8.703125 -14.265625 L 6.65625 -14.265625 L 6.65625 -10.234375 L 8.4375 -10.234375 C 9.519531 -10.234375 10.34375 -10.394531 10.90625 -10.71875 C 11.46875 -11.050781 11.75 -11.59375 11.75 -12.34375 C 11.75 -13 11.503906 -13.484375 11.015625 -13.796875 C 10.535156 -14.109375 9.765625 -14.265625 8.703125 -14.265625 Z M 8.703125 -14.265625 "/></g></g></g><g fill="#241800" fill-opacity="1"><g transform="translate(291.070412, 165.089643)"><g><path d="M 15.015625 -14 L 6.671875 -14 L 6.671875 -11.484375 L 14.34375 -11.484375 L 14.34375 -7.046875 L 6.671875 -7.046875 L 6.671875 -4.4375 L 15.234375 -4.4375 L 14.921875 0 L 1.5625 0 L 1.5625 -18.453125 L 15.015625 -18.453125 Z M 15.015625 -14 "/></g></g></g><g fill="#241800" fill-opacity="1"><g transform="translate(322.121419, 165.089643)"><g><path d="M 1.5625 0 L 1.5625 -18.453125 L 8.96875 -18.453125 C 11.394531 -18.453125 13.253906 -18 14.546875 -17.09375 C 15.847656 -16.195312 16.5 -14.90625 16.5 -13.21875 C 16.5 -12.425781 16.332031 -11.695312 16 -11.03125 C 15.675781 -10.363281 15.226562 -9.8125 14.65625 -9.375 C 15.3125 -9.03125 15.851562 -8.53125 16.28125 -7.875 C 16.707031 -7.21875 16.921875 -6.4375 16.921875 -5.53125 C 16.921875 -4.4375 16.609375 -3.472656 15.984375 -2.640625 C 15.359375 -1.816406 14.484375 -1.171875 13.359375 -0.703125 C 12.242188 -0.234375 10.941406 0 9.453125 0 Z M 9.203125 -14.265625 L 6.65625 -14.265625 L 6.65625 -11.375 L 9.171875 -11.375 C 9.929688 -11.375 10.484375 -11.5 10.828125 -11.75 C 11.179688 -12.007812 11.359375 -12.375 11.359375 -12.84375 C 11.359375 -13.789062 10.640625 -14.265625 9.203125 -14.265625 Z M 6.65625 -4.1875 L 9.640625 -4.1875 C 10.296875 -4.1875 10.8125 -4.316406 11.1875 -4.578125 C 11.570312 -4.835938 11.765625 -5.226562 11.765625 -5.75 C 11.765625 -6.25 11.597656 -6.609375 11.265625 -6.828125 C 10.941406 -7.054688 10.398438 -7.171875 9.640625 -7.171875 L 6.65625 -7.171875 Z M 6.65625 -4.1875 "/></g></g></g><g fill="#241800" fill-opacity="1"><g transform="translate(354.913191, 165.089643)"><g><path d="M 1.5625 0 L 1.5625 -18.453125 L 6.75 -18.453125 L 6.75 -4.515625 L 14.453125 -4.515625 L 14.140625 0 Z M 1.5625 0 "/></g></g></g><g fill="#241800" fill-opacity="1"><g transform="translate(384.846984, 165.089643)"><g><path d="M 10.296875 0.265625 C 8.296875 0.273438 6.578125 -0.078125 5.140625 -0.796875 C 3.703125 -1.523438 2.601562 -2.570312 1.84375 -3.9375 C 1.082031 -5.3125 0.703125 -6.960938 0.703125 -8.890625 C 0.703125 -10.859375 1.117188 -12.578125 1.953125 -14.046875 C 2.785156 -15.523438 3.945312 -16.671875 5.4375 -17.484375 C 6.925781 -18.296875 8.664062 -18.703125 10.65625 -18.703125 C 12.46875 -18.703125 14.054688 -18.320312 15.421875 -17.5625 C 16.785156 -16.800781 17.84375 -15.738281 18.59375 -14.375 C 19.34375 -13.019531 19.71875 -11.425781 19.71875 -9.59375 C 19.71875 -7.644531 19.320312 -5.9375 18.53125 -4.46875 C 17.75 -3 16.644531 -1.847656 15.21875 -1.015625 C 13.800781 -0.179688 12.160156 0.242188 10.296875 0.265625 Z M 10.15625 -4.28125 C 11.488281 -4.28125 12.546875 -4.753906 13.328125 -5.703125 C 14.109375 -6.648438 14.5 -7.910156 14.5 -9.484375 C 14.5 -10.898438 14.128906 -12.03125 13.390625 -12.875 C 12.660156 -13.726562 11.679688 -14.15625 10.453125 -14.15625 C 9.546875 -14.15625 8.753906 -13.9375 8.078125 -13.5 C 7.398438 -13.0625 6.875 -12.457031 6.5 -11.6875 C 6.132812 -10.914062 5.953125 -10.023438 5.953125 -9.015625 C 5.953125 -7.523438 6.320312 -6.363281 7.0625 -5.53125 C 7.8125 -4.695312 8.84375 -4.28125 10.15625 -4.28125 Z M 10.15625 -4.28125 "/></g></g></g><g fill="#241800" fill-opacity="1"><g transform="translate(420.860466, 165.089643)"><g><path d="M 10.9375 -10.46875 L 19.40625 -10.46875 L 19.40625 0 L 15.3125 0 L 14.96875 -1.578125 C 14.425781 -0.960938 13.710938 -0.5 12.828125 -0.1875 C 11.953125 0.125 11.007812 0.28125 10 0.28125 C 8.113281 0.28125 6.472656 -0.078125 5.078125 -0.796875 C 3.679688 -1.523438 2.601562 -2.570312 1.84375 -3.9375 C 1.082031 -5.3125 0.703125 -6.941406 0.703125 -8.828125 C 0.703125 -10.785156 1.140625 -12.503906 2.015625 -13.984375 C 2.890625 -15.472656 4.117188 -16.628906 5.703125 -17.453125 C 7.285156 -18.285156 9.132812 -18.703125 11.25 -18.703125 C 13.207031 -18.703125 14.828125 -18.390625 16.109375 -17.765625 C 17.390625 -17.148438 18.457031 -16.203125 19.3125 -14.921875 L 15.359375 -12.0625 C 14.960938 -12.769531 14.382812 -13.28125 13.625 -13.59375 C 12.875 -13.90625 12.09375 -14.0625 11.28125 -14.0625 C 9.6875 -14.0625 8.425781 -13.59375 7.5 -12.65625 C 6.570312 -11.71875 6.109375 -10.488281 6.109375 -8.96875 C 6.109375 -7.507812 6.507812 -6.375 7.3125 -5.5625 C 8.113281 -4.75 9.226562 -4.34375 10.65625 -4.34375 C 11.46875 -4.34375 12.195312 -4.507812 12.84375 -4.84375 C 13.5 -5.1875 13.957031 -5.664062 14.21875 -6.28125 L 10.9375 -6.28125 Z M 10.9375 -10.46875 "/></g></g></g><g clip-path="url(#f8f3f89c6a)"><path fill="#a2751d" d="M 59.28125 144.730469 C 43.6875 144.730469 29.007812 139.574219 17.953125 130.21875 C 12.527344 125.632812 8.269531 120.28125 5.277344 114.308594 C 2.175781 108.09375 0.59375 101.476562 0.59375 94.667969 C 0.59375 93.0625 0.691406 91.429688 0.863281 89.824219 C 2.007812 79.621094 6.738281 70.097656 14.523438 62.265625 C 22.148438 54.601562 32.15625 49.128906 43.457031 46.441406 L 44.710938 51.707031 C 23.742188 56.695312 8.28125 72.261719 6.238281 90.433594 C 6.082031 91.832031 5.996094 93.257812 5.996094 94.667969 C 5.996094 119.285156 29.894531 139.316406 59.269531 139.316406 C 67.371094 139.316406 75.15625 137.832031 82.390625 134.902344 C 86.078125 133.40625 89.566406 131.558594 92.765625 129.378906 C 102.726562 122.617188 109.453125 113.105469 111.703125 102.609375 L 116.996094 103.742188 C 114.453125 115.613281 106.925781 126.304688 95.808594 133.855469 C 92.292969 136.238281 88.472656 138.285156 84.421875 139.914062 C 76.554688 143.113281 68.085938 144.730469 59.28125 144.730469 Z M 59.28125 144.730469 " fill-opacity="1" fill-rule="nonzero"/></g><g clip-path="url(#499ac8e137)"><path fill="#a2751d" d="M 107.570312 144.730469 C 98.761719 144.730469 90.296875 143.113281 82.414062 139.914062 C 78.378906 138.285156 74.546875 136.238281 71.03125 133.855469 C 59.914062 126.316406 52.386719 115.613281 49.84375 103.742188 L 55.132812 102.609375 C 57.382812 113.105469 64.109375 122.617188 74.070312 129.378906 C 77.269531 131.558594 80.761719 133.40625 84.445312 134.902344 C 91.683594 137.832031 99.46875 139.316406 107.570312 139.316406 C 136.941406 139.316406 160.84375 119.285156 160.84375 94.667969 C 160.84375 93.242188 160.757812 91.820312 160.613281 90.433594 C 158.652344 72.945312 144.53125 57.996094 124.632812 52.351562 L 126.105469 47.144531 C 148.121094 53.386719 163.773438 70.132812 165.976562 89.824219 C 166.15625 91.40625 166.242188 93.035156 166.242188 94.667969 C 166.242188 101.476562 164.660156 108.09375 161.558594 114.308594 C 158.582031 120.28125 154.3125 125.632812 148.886719 130.21875 C 137.832031 139.574219 123.160156 144.730469 107.570312 144.730469 Z M 107.570312 144.730469 " fill-opacity="1" fill-rule="nonzero"/></g><path fill="#a2751d" d="M 15.398438 100.917969 C 15.933594 103.933594 16.917969 106.867188 18.378906 109.53125 C 19.082031 110.878906 19.933594 112.132812 20.808594 113.363281 C 21.285156 113.957031 21.722656 114.566406 22.234375 115.125 C 22.476562 115.40625 22.71875 115.695312 22.976562 115.976562 L 23.753906 116.792969 L 24.144531 117.191406 L 24.554688 117.582031 L 25.371094 118.359375 C 25.652344 118.617188 25.941406 118.859375 26.222656 119.101562 C 26.503906 119.34375 26.78125 119.601562 27.085938 119.832031 C 27.683594 120.292969 28.253906 120.769531 28.875 121.195312 C 29.179688 121.414062 29.480469 121.632812 29.785156 121.851562 L 30.722656 122.472656 L 31.195312 122.777344 C 31.355469 122.871094 31.511719 122.96875 31.683594 123.066406 L 32.644531 123.640625 C 32.960938 123.832031 33.300781 124.003906 33.628906 124.1875 L 34.613281 124.722656 L 35.625 125.21875 C 35.964844 125.378906 36.292969 125.5625 36.632812 125.707031 L 37.65625 126.15625 C 37.824219 126.230469 37.996094 126.316406 38.167969 126.386719 L 38.691406 126.59375 C 44.234375 128.84375 50.121094 130.132812 56.046875 130.558594 C 61.96875 130.984375 67.941406 130.558594 73.671875 129.296875 L 74.632812 134.621094 C 68.28125 135.535156 61.871094 135.5 55.609375 134.597656 C 49.34375 133.6875 43.226562 131.847656 37.582031 129.0625 L 37.046875 128.808594 C 36.878906 128.722656 36.695312 128.625 36.523438 128.527344 L 35.492188 127.96875 C 35.136719 127.785156 34.808594 127.578125 34.46875 127.386719 L 33.449219 126.789062 L 32.449219 126.15625 C 32.121094 125.9375 31.78125 125.742188 31.464844 125.511719 L 30.503906 124.832031 C 30.347656 124.722656 30.175781 124.613281 30.03125 124.492188 L 29.566406 124.136719 L 28.628906 123.421875 C 28.328125 123.175781 28.023438 122.921875 27.730469 122.667969 C 27.121094 122.179688 26.550781 121.632812 25.96875 121.109375 C 25.675781 120.855469 25.40625 120.5625 25.128906 120.292969 C 24.847656 120.015625 24.570312 119.746094 24.300781 119.46875 L 23.511719 118.605469 L 23.121094 118.164062 L 22.742188 117.714844 L 22.003906 116.816406 C 21.757812 116.511719 21.539062 116.195312 21.296875 115.878906 C 20.820312 115.257812 20.410156 114.601562 19.972656 113.957031 C 19.15625 112.632812 18.378906 111.28125 17.769531 109.859375 C 16.480469 107 15.703125 103.972656 15.398438 100.917969 Z M 15.398438 100.917969 " fill-opacity="1" fill-rule="nonzero"/><path fill="#a2751d" d="M 93.167969 129.296875 C 98.898438 130.558594 104.867188 130.972656 110.792969 130.558594 C 116.714844 130.132812 122.601562 128.84375 128.148438 126.59375 L 128.671875 126.386719 C 128.84375 126.316406 129.011719 126.242188 129.183594 126.15625 L 130.203125 125.707031 C 130.542969 125.5625 130.886719 125.390625 131.214844 125.21875 L 132.222656 124.722656 L 133.207031 124.1875 C 133.535156 124.003906 133.878906 123.832031 134.195312 123.640625 L 135.15625 123.066406 C 135.3125 122.96875 135.484375 122.871094 135.640625 122.777344 L 136.117188 122.472656 L 137.050781 121.851562 C 137.355469 121.644531 137.660156 121.414062 137.964844 121.195312 C 138.585938 120.769531 139.167969 120.292969 139.753906 119.832031 C 140.054688 119.601562 140.335938 119.359375 140.617188 119.101562 C 140.894531 118.859375 141.1875 118.617188 141.46875 118.359375 L 142.28125 117.582031 L 142.695312 117.191406 L 143.085938 116.792969 L 143.863281 115.976562 C 144.117188 115.695312 144.363281 115.40625 144.605469 115.125 C 145.117188 114.566406 145.554688 113.957031 146.027344 113.363281 C 146.917969 112.132812 147.765625 110.878906 148.460938 109.53125 C 149.921875 106.867188 150.90625 103.949219 151.441406 100.917969 C 151.136719 103.972656 150.359375 107 149.070312 109.820312 C 148.460938 111.246094 147.683594 112.59375 146.867188 113.921875 C 146.429688 114.566406 146.015625 115.234375 145.542969 115.84375 C 145.3125 116.160156 145.078125 116.476562 144.835938 116.777344 L 144.09375 117.679688 L 143.71875 118.128906 L 143.328125 118.566406 L 142.539062 119.429688 C 142.269531 119.710938 141.988281 119.992188 141.710938 120.257812 C 141.429688 120.539062 141.164062 120.816406 140.871094 121.074219 C 140.289062 121.597656 139.726562 122.144531 139.109375 122.628906 C 138.804688 122.886719 138.511719 123.140625 138.207031 123.382812 L 137.269531 124.101562 L 136.808594 124.453125 C 136.652344 124.574219 136.492188 124.683594 136.335938 124.792969 L 135.375 125.476562 C 135.058594 125.707031 134.714844 125.902344 134.386719 126.121094 L 133.390625 126.753906 L 132.371094 127.347656 C 132.027344 127.542969 131.699219 127.75 131.347656 127.933594 L 130.3125 128.492188 C 130.144531 128.589844 129.972656 128.675781 129.789062 128.773438 L 129.253906 129.027344 C 123.613281 131.8125 117.492188 133.648438 111.230469 134.5625 C 104.964844 135.472656 98.542969 135.5 92.207031 134.585938 Z M 93.167969 129.296875 " fill-opacity="1" fill-rule="nonzero"/><g clip-path="url(#fb0254ac88)"><path fill="#a2751d" d="M 123.464844 70.886719 C 123.40625 69.988281 123.417969 69.136719 123.429688 68.296875 C 123.441406 67.457031 123.464844 66.632812 123.503906 65.828125 C 123.574219 64.210938 123.648438 62.617188 123.734375 61.046875 C 123.769531 60.257812 123.820312 59.480469 123.84375 58.6875 C 123.867188 57.898438 123.878906 57.121094 123.84375 56.328125 C 123.804688 55.550781 123.792969 54.761719 123.710938 53.980469 L 123.601562 52.8125 C 123.550781 52.425781 123.488281 52.035156 123.429688 51.644531 C 123.222656 50.089844 122.871094 48.570312 122.480469 47.0625 C 122.371094 46.683594 122.25 46.320312 122.140625 45.941406 C 122.019531 45.566406 121.921875 45.1875 121.789062 44.824219 C 121.519531 44.09375 121.277344 43.351562 120.960938 42.632812 C 119.78125 39.75 118.285156 37.003906 116.449219 34.496094 L 115.753906 33.558594 L 115.023438 32.660156 C 114.550781 32.050781 114.015625 31.480469 113.503906 30.910156 L 113.308594 30.6875 L 113.101562 30.484375 L 112.6875 30.070312 C 112.410156 29.800781 112.152344 29.507812 111.875 29.242188 L 111.023438 28.453125 C 110.878906 28.316406 110.742188 28.183594 110.597656 28.0625 L 110.160156 27.683594 C 107.8125 25.679688 105.234375 23.925781 102.472656 22.550781 C 99.710938 21.179688 96.828125 20.070312 93.824219 19.378906 L 92.695312 19.121094 L 92.414062 19.0625 L 92.132812 19.011719 L 91.5625 18.914062 C 91.183594 18.855469 90.808594 18.78125 90.429688 18.722656 L 89.289062 18.585938 L 88.714844 18.515625 C 88.523438 18.488281 88.328125 18.488281 88.144531 18.464844 L 86.988281 18.394531 C 86.613281 18.355469 86.222656 18.367188 85.832031 18.355469 L 84.679688 18.332031 C 81.601562 18.34375 78.535156 18.722656 75.554688 19.449219 C 72.574219 20.167969 69.691406 21.273438 66.957031 22.675781 L 66.445312 22.929688 C 66.273438 23.015625 66.117188 23.125 65.945312 23.210938 L 64.949219 23.78125 C 64.621094 23.976562 64.304688 24.195312 63.976562 24.390625 L 63.488281 24.691406 L 63.246094 24.851562 L 63.015625 25.019531 C 62.394531 25.472656 61.75 25.898438 61.15625 26.382812 L 60.242188 27.089844 L 59.34375 27.867188 C 57.007812 29.863281 54.925781 32.171875 53.140625 34.679688 C 51.339844 37.171875 49.867188 39.910156 48.699219 42.765625 C 48.394531 43.472656 48.152344 44.214844 47.898438 44.933594 C 47.761719 45.296875 47.664062 45.675781 47.554688 46.039062 C 47.445312 46.402344 47.324219 46.78125 47.226562 47.144531 C 46.851562 48.640625 46.511719 50.148438 46.304688 51.695312 C 46.253906 52.085938 46.195312 52.460938 46.144531 52.851562 L 46.046875 54.007812 C 45.964844 54.773438 45.964844 55.550781 45.914062 56.328125 C 45.839844 57.886719 45.828125 59.441406 45.816406 61.011719 C 45.816406 62.582031 45.828125 64.175781 45.855469 65.804688 L 45.890625 68.285156 C 45.890625 69.125 45.914062 69.976562 45.878906 70.875 C 44.699219 69.550781 43.808594 68.03125 43.082031 66.449219 C 42.351562 64.867188 41.828125 63.1875 41.449219 61.472656 C 41.269531 60.621094 41.132812 59.757812 41.039062 58.882812 C 40.941406 58.007812 40.878906 57.144531 40.890625 56.269531 C 40.890625 55.832031 40.890625 55.390625 40.902344 54.953125 C 40.902344 54.515625 40.941406 54.078125 40.964844 53.640625 L 41.050781 52.328125 C 41.085938 51.890625 41.148438 51.453125 41.195312 51.015625 C 41.378906 49.261719 41.730469 47.535156 42.121094 45.832031 C 42.230469 45.40625 42.351562 44.980469 42.460938 44.554688 C 42.582031 44.128906 42.679688 43.703125 42.824219 43.289062 C 43.105469 42.449219 43.347656 41.613281 43.675781 40.796875 L 44.152344 39.570312 L 44.6875 38.351562 L 44.953125 37.742188 C 45.039062 37.539062 45.148438 37.34375 45.246094 37.148438 L 45.839844 35.96875 C 45.9375 35.773438 46.046875 35.578125 46.15625 35.382812 L 46.484375 34.8125 C 46.707031 34.4375 46.910156 34.035156 47.144531 33.667969 L 47.847656 32.550781 C 47.96875 32.367188 48.078125 32.171875 48.199219 31.992188 L 48.578125 31.445312 C 52.566406 25.628906 57.992188 20.777344 64.28125 17.503906 L 65.460938 16.898438 C 65.863281 16.703125 66.261719 16.53125 66.664062 16.335938 C 67.46875 15.949219 68.292969 15.644531 69.109375 15.316406 C 69.523438 15.144531 69.9375 15.011719 70.363281 14.867188 C 70.777344 14.71875 71.203125 14.574219 71.628906 14.441406 L 72.902344 14.074219 L 73.550781 13.890625 C 73.769531 13.832031 73.972656 13.796875 74.195312 13.734375 C 77.636719 12.90625 81.175781 12.492188 84.714844 12.480469 C 91.78125 12.53125 98.859375 14.269531 105.0625 17.613281 C 108.175781 19.269531 111.070312 21.324219 113.6875 23.671875 C 116.3125 26.007812 118.613281 28.695312 120.59375 31.589844 C 122.578125 34.484375 124.183594 37.621094 125.398438 40.894531 C 125.726562 41.710938 125.972656 42.546875 126.238281 43.375 C 126.386719 43.789062 126.480469 44.214844 126.59375 44.640625 C 126.703125 45.066406 126.824219 45.480469 126.921875 45.90625 C 127.296875 47.609375 127.636719 49.324219 127.808594 51.050781 C 127.855469 51.488281 127.90625 51.914062 127.941406 52.351562 L 128.015625 53.652344 C 128.085938 54.515625 128.0625 55.390625 128.074219 56.257812 C 128.085938 57.121094 128.039062 57.996094 127.992188 58.859375 C 127.941406 59.722656 127.84375 60.585938 127.710938 61.449219 C 127.429688 63.164062 126.96875 64.84375 126.277344 66.4375 C 125.933594 67.238281 125.535156 68.003906 125.070312 68.746094 C 124.597656 69.527344 124.085938 70.230469 123.464844 70.886719 Z M 123.464844 70.886719 " fill-opacity="1" fill-rule="nonzero"/></g><g clip-path="url(#9afac83151)"><path fill="#a2751d" d="M 83.425781 186.984375 C 66.785156 186.984375 50.148438 185.769531 33.617188 183.324219 L 30.152344 182.8125 L 31.511719 179.589844 C 37.179688 166.210938 38.8125 152.660156 36.355469 139.316406 L 41.683594 138.34375 C 44.125 151.664062 42.824219 165.140625 37.800781 178.457031 C 68.085938 182.617188 98.75 182.617188 129.035156 178.457031 C 124.011719 165.140625 122.710938 151.664062 125.15625 138.34375 L 130.484375 139.316406 C 128.027344 152.660156 129.65625 166.210938 135.324219 179.589844 L 136.6875 182.8125 L 133.21875 183.324219 C 116.703125 185.753906 100.0625 186.984375 83.425781 186.984375 Z M 83.425781 186.984375 " fill-opacity="1" fill-rule="nonzero"/></g><path fill="#a2751d" d="M 36.839844 167.230469 C 54.5625 170.746094 72.660156 172.863281 90.90625 173.457031 C 72.734375 175.136719 54.320312 175.320312 35.929688 174.019531 Z M 36.839844 167.230469 " fill-opacity="1" fill-rule="nonzero"/><path fill="#a2751d" d="M 61.398438 92.878906 L 61.457031 93.160156 C 62.894531 99.3125 59.148438 105.578125 53.003906 107.035156 C 49.917969 107.765625 46.828125 107.171875 44.332031 105.613281 C 41.851562 104.070312 39.953125 101.574219 39.238281 98.5 L 39.128906 98.046875 L 35.355469 77.917969 C 35.148438 76.847656 35.832031 75.800781 36.902344 75.558594 C 37.960938 75.316406 39.03125 75.949219 39.320312 76.992188 L 44.46875 95.445312 C 44.660156 96.164062 45.390625 96.601562 46.121094 96.429688 C 46.851562 96.261719 47.3125 95.554688 47.167969 94.824219 L 43.640625 75.996094 C 43.433594 74.925781 44.113281 73.878906 45.183594 73.636719 C 46.242188 73.394531 47.3125 74.027344 47.605469 75.070312 L 52.75 93.523438 C 52.945312 94.242188 53.675781 94.679688 54.402344 94.507812 C 55.132812 94.339844 55.597656 93.632812 55.449219 92.902344 L 51.921875 74.074219 C 51.714844 73.003906 52.398438 71.957031 53.46875 71.714844 C 54.527344 71.472656 55.597656 72.105469 55.886719 73.152344 Z M 61.398438 92.878906 " fill-opacity="1" fill-rule="nonzero"/><path fill="#a2751d" d="M 123.335938 71.882812 C 123.765625 72 124.183594 72.148438 124.59375 72.320312 C 125.003906 72.496094 125.40625 72.695312 125.792969 72.925781 C 126.183594 73.152344 126.558594 73.40625 126.921875 73.6875 C 127.285156 73.964844 127.636719 74.269531 127.972656 74.601562 C 128.304688 74.929688 128.625 75.28125 128.929688 75.660156 C 129.230469 76.035156 129.515625 76.429688 129.785156 76.847656 C 130.050781 77.265625 130.300781 77.703125 130.53125 78.160156 C 130.761719 78.617188 130.972656 79.09375 131.164062 79.582031 C 131.355469 80.074219 131.523438 80.582031 131.671875 81.101562 C 131.820312 81.621094 131.949219 82.152344 132.054688 82.699219 C 132.160156 83.242188 132.246094 83.796875 132.308594 84.363281 C 132.371094 84.925781 132.410156 85.496094 132.425781 86.074219 C 132.445312 86.652344 132.4375 87.234375 132.410156 87.820312 C 132.382812 88.40625 132.335938 88.992188 132.261719 89.582031 C 132.191406 90.167969 132.097656 90.757812 131.980469 91.339844 C 131.863281 91.925781 131.726562 92.507812 131.570312 93.085938 C 131.410156 93.660156 131.230469 94.230469 131.03125 94.792969 C 130.832031 95.355469 130.613281 95.90625 130.371094 96.449219 C 130.132812 96.992188 129.875 97.523438 129.597656 98.039062 C 129.324219 98.554688 129.03125 99.058594 128.71875 99.546875 C 128.410156 100.035156 128.082031 100.503906 127.742188 100.957031 C 127.398438 101.410156 127.042969 101.84375 126.675781 102.257812 C 126.304688 102.671875 125.921875 103.0625 125.527344 103.433594 C 125.132812 103.804688 124.730469 104.152344 124.3125 104.476562 C 123.898438 104.800781 123.476562 105.101562 123.042969 105.375 C 122.613281 105.652344 122.175781 105.898438 121.730469 106.121094 C 121.285156 106.34375 120.835938 106.539062 120.386719 106.707031 C 119.933594 106.875 119.476562 107.015625 119.023438 107.125 C 118.566406 107.238281 118.109375 107.320312 117.652344 107.375 C 117.199219 107.429688 116.746094 107.457031 116.292969 107.453125 C 115.84375 107.449219 115.394531 107.417969 114.953125 107.355469 C 114.511719 107.296875 114.078125 107.207031 113.648438 107.089844 C 113.222656 106.972656 112.800781 106.824219 112.390625 106.652344 C 111.980469 106.476562 111.582031 106.277344 111.191406 106.050781 C 110.800781 105.820312 110.425781 105.566406 110.0625 105.285156 C 109.699219 105.007812 109.347656 104.703125 109.015625 104.371094 C 108.679688 104.042969 108.359375 103.691406 108.058594 103.316406 C 107.753906 102.9375 107.46875 102.542969 107.199219 102.125 C 106.933594 101.707031 106.683594 101.269531 106.453125 100.8125 C 106.222656 100.355469 106.011719 99.878906 105.820312 99.390625 C 105.632812 98.898438 105.460938 98.394531 105.3125 97.871094 C 105.164062 97.351562 105.035156 96.820312 104.929688 96.273438 C 104.824219 95.730469 104.738281 95.175781 104.679688 94.609375 C 104.617188 94.046875 104.574219 93.476562 104.558594 92.898438 C 104.542969 92.320312 104.546875 91.738281 104.574219 91.152344 C 104.601562 90.566406 104.652344 89.980469 104.722656 89.390625 C 104.796875 88.804688 104.890625 88.214844 105.003906 87.632812 C 105.121094 87.046875 105.257812 86.464844 105.417969 85.886719 C 105.574219 85.3125 105.753906 84.742188 105.953125 84.179688 C 106.15625 83.617188 106.375 83.066406 106.613281 82.523438 C 106.851562 81.980469 107.109375 81.453125 107.386719 80.933594 C 107.660156 80.417969 107.957031 79.914062 108.265625 79.425781 C 108.574219 78.9375 108.902344 78.46875 109.242188 78.015625 C 109.585938 77.5625 109.941406 77.128906 110.3125 76.714844 C 110.679688 76.300781 111.0625 75.910156 111.457031 75.539062 C 111.851562 75.167969 112.257812 74.820312 112.671875 74.496094 C 113.085938 74.171875 113.507812 73.871094 113.941406 73.597656 C 114.371094 73.324219 114.8125 73.074219 115.253906 72.851562 C 115.699219 72.628906 116.148438 72.433594 116.601562 72.265625 C 117.050781 72.097656 117.507812 71.957031 117.964844 71.847656 C 118.417969 71.734375 118.875 71.652344 119.332031 71.597656 C 119.789062 71.542969 120.242188 71.515625 120.691406 71.519531 C 121.144531 71.523438 121.589844 71.554688 122.03125 71.617188 C 122.472656 71.675781 122.90625 71.765625 123.335938 71.882812 Z M 123.335938 71.882812 " fill-opacity="1" fill-rule="nonzero"/></svg>